<?xml version="1.0" encoding="UTF-8" standalone="no"?>
<!-- Created with Inkscape (http://www.inkscape.org/) -->

<svg
   xmlns:dc="http://purl.org/dc/elements/1.1/"
   xmlns:cc="http://creativecommons.org/ns#"
   xmlns:rdf="http://www.w3.org/1999/02/22-rdf-syntax-ns#"
   xmlns:svg="http://www.w3.org/2000/svg"
   xmlns="http://www.w3.org/2000/svg"
   xmlns:sodipodi="http://sodipodi.sourceforge.net/DTD/sodipodi-0.dtd"
   xmlns:inkscape="http://www.inkscape.org/namespaces/inkscape"
   width="1920"
   height="1080"
   viewBox="0 0 507.99999 285.75001"
   version="1.1"
   id="svg8"
   inkscape:export-filename="C:\Users\mathe\Desktop\bitmap.png"
   inkscape:export-xdpi="96"
   inkscape:export-ydpi="96"
   inkscape:version="0.92.4 (5da689c313, 2019-01-14)"
   sodipodi:docname="Bg Power BI.svg">
  <defs
     id="defs2" />
  <sodipodi:namedview
     id="base"
     pagecolor="#ffffff"
     bordercolor="#666666"
     borderopacity="1.0"
     inkscape:pageopacity="1"
     inkscape:pageshadow="2"
     inkscape:zoom="0.35"
     inkscape:cx="1414.3287"
     inkscape:cy="714.9311"
     inkscape:document-units="mm"
     inkscape:current-layer="layer1"
     showgrid="false"
     units="px"
     showguides="true"
     inkscape:guide-bbox="true"
     inkscape:window-width="1920"
     inkscape:window-height="1001"
     inkscape:window-x="-9"
     inkscape:window-y="-9"
     inkscape:window-maximized="1">
    <sodipodi:guide
       position="0,286.50596"
       orientation="1,0"
       id="guide12"
       inkscape:locked="false" />
    <sodipodi:guide
       position="508.01256,285.74454"
       orientation="0,1"
       id="guide14"
       inkscape:locked="false" />
    <sodipodi:guide
       position="508.01255,285.74455"
       orientation="1,0"
       id="guide16"
       inkscape:locked="false" />
    <sodipodi:guide
       position="0,0"
       orientation="0,1"
       id="guide18"
       inkscape:locked="false" />
  </sodipodi:namedview>
  <metadata
     id="metadata5">
    <rdf:RDF>
      <cc:Work
         rdf:about="">
        <dc:format>image/svg+xml</dc:format>
        <dc:type
           rdf:resource="http://purl.org/dc/dcmitype/StillImage" />
        <dc:title></dc:title>
      </cc:Work>
    </rdf:RDF>
  </metadata>
  <g
     inkscape:label="Camada 1"
     inkscape:groupmode="layer"
     id="layer1"
     transform="translate(0,-11.249983)">
    <rect
       style="fill:#000000;fill-opacity:0.66006601;stroke-width:0.76951188"
       id="rect50"
       width="508"
       height="285.75"
       x="0"
       y="11.255445" />
    <rect
       style="fill:#000000;stroke-width:0.20494536"
       id="rect10"
       width="39.6875"
       height="285.75"
       x="0"
       y="11.255445" />
    <rect
       style="fill:#000000;stroke-width:0.27326044"
       id="rect10-0"
       width="508"
       height="39.6875"
       x="0"
       y="11.255445" />
    <rect
       style="fill:#000000;stroke-width:0.157767"
       id="rect10-0-0"
       width="508"
       height="13.229167"
       x="0"
       y="283.77081" />
    <text
       xml:space="preserve"
       style="font-style:normal;font-variant:normal;font-weight:normal;font-stretch:normal;font-size:10.58333302px;line-height:1.25;font-family:'Comic Sans MS';-inkscape-font-specification:'Comic Sans MS';letter-spacing:0px;word-spacing:0px;fill:#ffff00;fill-opacity:1;stroke:none;stroke-width:0.26458332"
       x="103.16604"
       y="35.075836"
       id="text862"><tspan
         sodipodi:role="line"
         id="tspan860"
         x="103.16604"
         y="35.075836"
         style="font-style:normal;font-variant:normal;font-weight:bold;font-stretch:normal;font-size:14.11111069px;font-family:'Comic Sans MS';-inkscape-font-specification:'Comic Sans MS Bold';fill:#ffff00;stroke-width:0.26458332">Análise de Resiliência em Cidades Inteligentes</tspan></text>
    <text
       xml:space="preserve"
       style="font-style:normal;font-variant:normal;font-weight:normal;font-stretch:normal;font-size:10.58333302px;line-height:1.25;font-family:'Comic Sans MS';-inkscape-font-specification:'Comic Sans MS';letter-spacing:0px;word-spacing:0px;fill:#ffff00;fill-opacity:1;stroke:none;stroke-width:0.26458332"
       x="39.10635"
       y="293.93018"
       id="text862-7"><tspan
         sodipodi:role="line"
         id="tspan860-2"
         x="39.10635"
         y="293.93018"
         style="font-style:normal;font-variant:normal;font-weight:bold;font-stretch:normal;font-size:9.87777805px;font-family:'Comic Sans MS';-inkscape-font-specification:'Comic Sans MS Bold';fill:#ffff00;stroke-width:0.26458332">Eng. Eletricista Cícero Matheus da Silva Lacerda</tspan></text>
    <text
       xml:space="preserve"
       style="font-style:normal;font-variant:normal;font-weight:normal;font-stretch:normal;font-size:10.58333302px;line-height:1.25;font-family:'Comic Sans MS';-inkscape-font-specification:'Comic Sans MS';letter-spacing:0px;word-spacing:0px;fill:#ffff00;fill-opacity:1;stroke:none;stroke-width:0.26458332"
       x="480.63431"
       y="293.77521"
       id="text862-7-1"><tspan
         sodipodi:role="line"
         id="tspan860-2-5"
         x="480.63431"
         y="293.77521"
         style="font-style:normal;font-variant:normal;font-weight:bold;font-stretch:normal;font-size:9.87777805px;font-family:'Comic Sans MS';-inkscape-font-specification:'Comic Sans MS Bold';fill:#ffff00;stroke-width:0.26458332">2020</tspan></text>
    <path
       style="fill:#ffff00;stroke-width:0.07332192"
       d="m 19.231773,53.690653 c -0.74987,-0.15762 -1.39966,-0.69677 -1.76685,-1.466 -0.16121,-0.33773 -0.19243,-0.50456 -0.1921,-1.02651 2.7e-4,-0.52972 0.0304,-0.68452 0.2006,-1.03171 0.25595,-0.52219 0.73736,-1.00971 1.24015,-1.2559 l 0.3953,-0.19357 -0.0103,-4.38686 c -0.006,-2.41278 0.005,-4.49309 0.0244,-4.6229 0.0833,-0.56735 0.75098,-0.80856 1.14567,-0.41387 l 0.1933,0.1933 v 4.61303 4.61302 l 0.27496,0.11487 c 1.09058,0.45562 1.77674,1.65499 1.57314,2.74978 -0.0451,0.24276 -0.15275,0.58736 -0.23912,0.76578 -0.21174,0.43739 -0.75818,0.96933 -1.20554,1.17354 -0.41966,0.19156 -1.16991,0.27148 -1.6336,0.174 z m 1.08631,-1.48433 c 0.35216,-0.17759 0.6571,-0.64544 0.6571,-1.00818 0,-0.30704 -0.30635,-0.82629 -0.58035,-0.98365 -0.31893,-0.18317 -0.86253,-0.18153 -1.17692,0.004 -0.74458,0.43832 -0.72305,1.55579 0.0383,1.98703 0.36777,0.20831 0.6506,0.20864 1.06188,10e-4 z M 8.2710227,48.629913 c -1.3210705,-0.33271 -2.1835005,-1.62917 -1.9474905,-2.92761 0.18479,-1.01673 0.89345,-1.76917 1.9119705,-2.03011 1.1374,-0.29138 2.3712103,0.2875 2.8754603,1.34911 l 0.20001,0.42107 1.29605,-0.008 c 1.34942,-0.008 1.55929,-0.0499 1.94167,-0.38574 0.36397,-0.3197 0.37515,-0.40278 0.41409,-3.07732 l 0.0367,-2.51774 0.20573,-0.17684 c 0.22702,-0.19515 0.66306,-0.23698 0.8638,-0.0829 0.27153,0.20848 0.28693,0.36181 0.28693,2.85768 0,2.08971 -0.0179,2.50093 -0.12202,2.80938 -0.2158,0.63907 -0.61159,1.15677 -1.16216,1.52015 -0.53186,0.35102 -0.90253,0.41593 -2.38192,0.41709 l -1.35645,10e-4 -0.24503,0.47387 c -0.2863,0.55368 -0.68334,0.93842 -1.2237603,1.18584 -0.43627,0.19973 -1.16752,0.27812 -1.59354,0.17082 z m 1.25293,-1.58752 c 0.6484103,-0.49456 0.5785803,-1.47092 -0.13507,-1.88879 -0.72819,-0.42638 -1.68497,0.12053 -1.68497,0.96316 0,0.97406 1.05385,1.51003 1.82004,0.92563 z m 20.3769503,1.50386 c -0.53644,-0.18698 -1.12646,-0.71639 -1.39924,-1.25553 l -0.20307,-0.40137 -1.40706,-0.0338 c -1.22211,-0.0294 -1.46153,-0.055 -1.82151,-0.1945 -0.55098,-0.21358 -1.00179,-0.56826 -1.32997,-1.04637 -0.47011,-0.68486 -0.49021,-0.83243 -0.4911,-3.60571 l -8.3e-4,-2.48025 0.21433,-0.21433 c 0.22901,-0.229 0.54947,-0.2816 0.82321,-0.1351 0.3231,0.17292 0.35558,0.43358 0.35558,2.85366 0,2.47655 0.0177,2.60365 0.42253,3.02625 0.31293,0.3267 0.77413,0.41987 2.07835,0.41987 h 1.15446 l 0.18026,-0.39373 c 0.59956,-1.30959 2.17534,-1.85221 3.4715,-1.1954 1.1737,0.59476 1.70154,2.11699 1.14126,3.29123 -0.12096,0.2535 -0.31681,0.56384 -0.43523,0.68965 -0.70736,0.75154 -1.78019,1.01471 -2.75351,0.67547 z m 1.48599,-1.44635 c 0.4443,-0.31812 0.63601,-0.92266 0.44855,-1.41446 -0.10521,-0.27603 -0.44683,-0.5669 -0.76708,-0.65313 -0.81732,-0.22008 -1.56952,0.50955 -1.40876,1.36649 0.13565,0.72307 1.13186,1.12742 1.72729,0.7011 z m -20.01688,-10.76354 c -1.30588,-0.23458 -2.4888503,-0.88096 -3.4129603,-1.86484 -0.6712705,-0.71471 -1.1909605,-1.62027 -1.5095005,-2.63036 -0.15275,-0.4844 -0.17316,-0.68968 -0.17124,-1.72307 0.002,-1.08963 0.0167,-1.21491 0.20571,-1.75972 0.33138,-0.95501 0.74406,-1.61048 1.4963505,-2.37663 l 0.67774,-0.69022 -0.0433,-0.59291 c -0.18722,-2.56275 1.9811803,-4.73564 4.5548603,-4.56431 l 0.58785,0.0391 0.28433,-0.43912 c 1.03661,-1.60099 2.96808,-2.9137 4.91052,-3.3374 0.68782,-0.15004 2.40959,-0.16943 3.08799,-0.0348 1.06982,0.21232 2.18411,0.68108 3.0316,1.27532 1.5767,1.10554 2.77709,2.91765 3.16249,4.77408 0.082,0.39516 0.0944,0.41062 0.39143,0.49053 1.63079,0.43867 3.31943,1.94985 4.12351,3.69018 0.48559,1.051 0.58306,1.54647 0.57819,2.93929 -0.004,1.1387 -0.0215,1.30219 -0.20213,1.89085 -0.50465,1.64424 -1.51278,3.00295 -2.8884,3.89283 -0.62876,0.40675 -1.02393,0.58594 -1.85435,0.84086 l -0.62323,0.19132 -8.10208,0.0109 c -4.45613,0.006 -8.18455,-0.004 -8.28537,-0.022 z m 16.82738,-1.57878 c 0.7471,-0.25443 1.39759,-0.64043 1.98414,-1.17739 1.18453,-1.08438 1.79194,-2.46917 1.79194,-4.08533 0,-1.92807 -0.91938,-3.6481 -2.48869,-4.65599 -0.48,-0.30828 -1.35699,-0.69651 -1.57337,-0.69651 -0.25151,0 -0.71384,-0.2467 -0.80715,-0.43069 -0.0537,-0.1059 -0.12022,-0.35752 -0.14782,-0.55916 -0.1884,-1.37651 -0.84871,-2.69388 -1.84157,-3.67406 -0.7789,-0.76894 -1.63218,-1.26263 -2.78902,-1.61367 -0.56839,-0.17247 -0.78383,-0.19892 -1.64396,-0.20182 -1.6436,-0.006 -2.80216,0.37209 -4.03737,1.31597 -0.49661,0.37948 -1.14697,1.07221 -1.43324,1.52662 -0.11651,0.18493 -0.31108,0.49289 -0.43238,0.68435 -0.3241,0.51156 -0.49038,0.56842 -1.21008,0.41376 -0.48646,-0.10453 -0.67657,-0.11288 -1.09534,-0.0481 -1.28018,0.19816 -2.21703,1.13045 -2.42963,2.4178 -0.0727,0.44008 -0.0666,0.60317 0.0401,1.08297 0.0691,0.31068 0.10573,0.64433 0.0814,0.74144 -0.0259,0.10325 -0.2797303,0.36086 -0.6113003,0.62044 -0.69647,0.54526 -1.12666,1.0477 -1.4546,1.6989 -1.1538005,2.29114 -0.12648,5.24537 2.2375503,6.43447 0.88714,0.44623 0.61305,0.4339 9.31841,0.41918 l 7.95543,-0.0135 z"
       id="path933"
       inkscape:connector-curvature="0" />
  </g>
</svg>
